HIERARCHY
ROOT Hips
{
	OFFSET -366.576721 -553.763367 89.060974
	CHANNELS 6 Xposition Yposition Zposition Zrotation Yrotation Xrotation
	JOINT Spine
	{
		OFFSET 0.000000 2.080078 8.814247
		CHANNELS 6 Xposition Yposition Zposition Zrotation Yrotation Xrotation
		JOINT Spine1
		{
			OFFSET 0.000000 0.000000 8.844139
			CHANNELS 6 Xposition Yposition Zposition Zrotation Yrotation Xrotation
			JOINT Spine2
			{
				OFFSET 0.000000 0.000000 11.682266
				CHANNELS 6 Xposition Yposition Zposition Zrotation Yrotation Xrotation
				JOINT Spine3
				{
					OFFSET 0.000000 0.000000 11.746704
					CHANNELS 6 Xposition Yposition Zposition Zrotation Yrotation Xrotation
					JOINT Neck
					{
						OFFSET 0.000000 0.000000 17.658264
						CHANNELS 6 Xposition Yposition Zposition Zrotation Yrotation Xrotation
						JOINT Neck1
						{
							OFFSET 0.000000 0.000000 5.101517
							CHANNELS 6 Xposition Yposition Zposition Zrotation Yrotation Xrotation
							JOINT Head
							{
								OFFSET 0.000000 0.000000 5.101517
								CHANNELS 6 Xposition Yposition Zposition Zrotation Yrotation Xrotation
								JOINT HeadEnd
								{
									OFFSET 0.000000 0.000000 11.655090
									CHANNELS 6 Xposition Yposition Zposition Zrotation Yrotation Xrotation
									End Site
									{
										OFFSET 0.000000 0.000000 0.100006
									}
								}
							}
						}
					}
					JOINT RightShoulder
					{
						OFFSET -2.625397 0.000000 11.175217
						CHANNELS 6 Xposition Yposition Zposition Zrotation Yrotation Xrotation
						JOINT RightArm
						{
							OFFSET 0.000000 0.000000 10.434708
							CHANNELS 6 Xposition Yposition Zposition Zrotation Yrotation Xrotation
							JOINT RightForeArm
							{
								OFFSET 0.000000 0.000000 29.628418
								CHANNELS 6 Xposition Yposition Zposition Zrotation Yrotation Xrotation
								JOINT RightHand
								{
									OFFSET 0.000000 0.000000 22.857605
									CHANNELS 6 Xposition Yposition Zposition Zrotation Yrotation Xrotation
									JOINT RightHandThumb1
									{
										OFFSET -2.867310 -2.944275 3.959564
										CHANNELS 6 Xposition Yposition Zposition Zrotation Yrotation Xrotation
										JOINT RightHandThumb2
										{
											OFFSET 0.000000 0.000000 3.350403
											CHANNELS 6 Xposition Yposition Zposition Zrotation Yrotation Xrotation
											JOINT RightHandThumb3
											{
												OFFSET 0.000000 0.000000 3.756516
												CHANNELS 6 Xposition Yposition Zposition Zrotation Yrotation Xrotation
												JOINT RightHandThumb4
												{
													OFFSET 0.000000 0.000000 3.147339
													CHANNELS 6 Xposition Yposition Zposition Zrotation Yrotation Xrotation
													End Site
													{
														OFFSET 0.000000 0.000000 0.100006
													}
												}
											}
										}
									}
									JOINT RightHandIndex1
									{
										OFFSET -0.086761 -2.345276 10.030899
										CHANNELS 6 Xposition Yposition Zposition Zrotation Yrotation Xrotation
										JOINT RightHandIndex2
										{
											OFFSET 0.000000 0.000000 4.061096
											CHANNELS 6 Xposition Yposition Zposition Zrotation Yrotation Xrotation
											JOINT RightHandIndex3
											{
												OFFSET 0.000000 0.000000 3.248871
												CHANNELS 6 Xposition Yposition Zposition Zrotation Yrotation Xrotation
												JOINT RightHandIndex4
												{
													OFFSET 0.000000 0.000000 2.639709
													CHANNELS 6 Xposition Yposition Zposition Zrotation Yrotation Xrotation
													End Site
													{
														OFFSET 0.000000 0.000000 0.100006
													}
												}
											}
										}
									}
									JOINT RightHandMiddle1
									{
										OFFSET 0.104095 -0.006775 9.502945
										CHANNELS 6 Xposition Yposition Zposition Zrotation Yrotation Xrotation
										JOINT RightHandMiddle2
										{
											OFFSET 0.000000 0.000000 4.568726
											CHANNELS 6 Xposition Yposition Zposition Zrotation Yrotation Xrotation
											JOINT RightHandMiddle3
											{
												OFFSET 0.000000 0.000000 3.654984
												CHANNELS 6 Xposition Yposition Zposition Zrotation Yrotation Xrotation
												JOINT RightHandMiddle4
												{
													OFFSET 0.000000 0.000000 2.741241
													CHANNELS 6 Xposition Yposition Zposition Zrotation Yrotation Xrotation
													End Site
													{
														OFFSET 0.000000 0.000000 0.100006
													}
												}
											}
										}
									}
									JOINT RightHandRing1
									{
										OFFSET 0.086761 2.267456 8.921707
										CHANNELS 6 Xposition Yposition Zposition Zrotation Yrotation Xrotation
										JOINT RightHandRing2
										{
											OFFSET 0.000000 0.000000 4.061096
											CHANNELS 6 Xposition Yposition Zposition Zrotation Yrotation Xrotation
											JOINT RightHandRing3
											{
												OFFSET 0.000000 0.000000 3.654984
												CHANNELS 6 Xposition Yposition Zposition Zrotation Yrotation Xrotation
												JOINT RightHandRing4
												{
													OFFSET 0.000000 0.000000 2.741241
													CHANNELS 6 Xposition Yposition Zposition Zrotation Yrotation Xrotation
													End Site
													{
														OFFSET 0.000000 0.000000 0.100006
													}
												}
											}
										}
									}
									JOINT RightHandPinky1
									{
										OFFSET -0.173492 4.467224 7.976990
										CHANNELS 6 Xposition Yposition Zposition Zrotation Yrotation Xrotation
										JOINT RightHandPinky2
										{
											OFFSET 0.000000 0.000000 3.350403
											CHANNELS 6 Xposition Yposition Zposition Zrotation Yrotation Xrotation
											JOINT RightHandPinky3
											{
												OFFSET 0.000000 0.000000 2.842758
												CHANNELS 6 Xposition Yposition Zposition Zrotation Yrotation Xrotation
												JOINT RightHandPinky4
												{
													OFFSET 0.000000 0.000000 2.639709
													CHANNELS 6 Xposition Yposition Zposition Zrotation Yrotation Xrotation
													End Site
													{
														OFFSET 0.000000 0.000000 0.100006
													}
												}
											}
										}
									}
									JOINT RightForeArmEnd
									{
										OFFSET 0.000000 0.000000 0.000000
										CHANNELS 6 Xposition Yposition Zposition Zrotation Yrotation Xrotation
										End Site
										{
											OFFSET 0.000000 0.000000 0.100006
										}
									}
								}
								JOINT RightArmEnd
								{
									OFFSET 0.000000 0.000000 0.000000
									CHANNELS 6 Xposition Yposition Zposition Zrotation Yrotation Xrotation
									End Site
									{
										OFFSET 0.000000 0.000000 0.100006
									}
								}
							}
						}
					}
					JOINT LeftShoulder
					{
						OFFSET 2.625397 0.000000 11.175217
						CHANNELS 6 Xposition Yposition Zposition Zrotation Yrotation Xrotation
						JOINT LeftArm
						{
							OFFSET 0.000000 0.000000 10.813629
							CHANNELS 6 Xposition Yposition Zposition Zrotation Yrotation Xrotation
							JOINT LeftForeArm
							{
								OFFSET 0.000000 0.000000 28.724777
								CHANNELS 6 Xposition Yposition Zposition Zrotation Yrotation Xrotation
								JOINT LeftHand
								{
									OFFSET 0.644379 0.328857 25.716171
									CHANNELS 6 Xposition Yposition Zposition Zrotation Yrotation Xrotation
									JOINT LeftHandThumb1
									{
										OFFSET 2.867310 -2.944275 3.959564
										CHANNELS 6 Xposition Yposition Zposition Zrotation Yrotation Xrotation
										JOINT LeftHandThumb2
										{
											OFFSET 0.000000 0.000000 3.350403
											CHANNELS 6 Xposition Yposition Zposition Zrotation Yrotation Xrotation
											JOINT LeftHandThumb3
											{
												OFFSET 0.000000 0.000000 3.756516
												CHANNELS 6 Xposition Yposition Zposition Zrotation Yrotation Xrotation
												JOINT LeftHandThumb4
												{
													OFFSET 0.000000 0.000000 3.100006
													CHANNELS 6 Xposition Yposition Zposition Zrotation Yrotation Xrotation
													End Site
													{
														OFFSET 0.000000 0.000000 0.100006
													}
												}
											}
										}
									}
									JOINT LeftHandIndex1
									{
										OFFSET 0.086761 -2.345276 10.030899
										CHANNELS 6 Xposition Yposition Zposition Zrotation Yrotation Xrotation
										JOINT LeftHandIndex2
										{
											OFFSET 0.000000 0.000000 4.061096
											CHANNELS 6 Xposition Yposition Zposition Zrotation Yrotation Xrotation
											JOINT LeftHandIndex3
											{
												OFFSET 0.000000 0.000000 3.248871
												CHANNELS 6 Xposition Yposition Zposition Zrotation Yrotation Xrotation
												JOINT LeftHandIndex4
												{
													OFFSET 0.000000 0.000000 2.639709
													CHANNELS 6 Xposition Yposition Zposition Zrotation Yrotation Xrotation
													End Site
													{
														OFFSET 0.000000 0.000000 0.100006
													}
												}
											}
										}
									}
									JOINT LeftHandMiddle1
									{
										OFFSET -0.104095 -0.006775 9.502945
										CHANNELS 6 Xposition Yposition Zposition Zrotation Yrotation Xrotation
										JOINT LeftHandMiddle2
										{
											OFFSET 0.000000 0.000000 4.568726
											CHANNELS 6 Xposition Yposition Zposition Zrotation Yrotation Xrotation
											JOINT LeftHandMiddle3
											{
												OFFSET 0.000000 0.000000 3.654984
												CHANNELS 6 Xposition Yposition Zposition Zrotation Yrotation Xrotation
												JOINT LeftHandMiddle4
												{
													OFFSET 0.000000 0.000000 2.741241
													CHANNELS 6 Xposition Yposition Zposition Zrotation Yrotation Xrotation
													End Site
													{
														OFFSET 0.000000 0.000000 0.100006
													}
												}
											}
										}
									}
									JOINT LeftHandRing1
									{
										OFFSET -0.086761 2.267456 8.921707
										CHANNELS 6 Xposition Yposition Zposition Zrotation Yrotation Xrotation
										JOINT LeftHandRing2
										{
											OFFSET 0.000000 0.000000 4.061096
											CHANNELS 6 Xposition Yposition Zposition Zrotation Yrotation Xrotation
											JOINT LeftHandRing3
											{
												OFFSET 0.000000 0.000000 3.654984
												CHANNELS 6 Xposition Yposition Zposition Zrotation Yrotation Xrotation
												JOINT LeftHandRing4
												{
													OFFSET 0.000000 0.000000 2.741241
													CHANNELS 6 Xposition Yposition Zposition Zrotation Yrotation Xrotation
													End Site
													{
														OFFSET 0.000000 0.000000 0.100006
													}
												}
											}
										}
									}
									JOINT LeftHandPinky1
									{
										OFFSET 0.173492 4.467224 7.976990
										CHANNELS 6 Xposition Yposition Zposition Zrotation Yrotation Xrotation
										JOINT LeftHandPinky2
										{
											OFFSET 0.000000 0.000000 3.350403
											CHANNELS 6 Xposition Yposition Zposition Zrotation Yrotation Xrotation
											JOINT LeftHandPinky3
											{
												OFFSET 0.000000 0.000000 2.842758
												CHANNELS 6 Xposition Yposition Zposition Zrotation Yrotation Xrotation
												JOINT LeftHandPinky4
												{
													OFFSET 0.000000 0.000000 2.639709
													CHANNELS 6 Xposition Yposition Zposition Zrotation Yrotation Xrotation
													End Site
													{
														OFFSET 0.000000 0.000000 0.100006
													}
												}
											}
										}
									}
									JOINT LeftForeArmEnd
									{
										OFFSET 0.000000 0.000000 0.000000
										CHANNELS 6 Xposition Yposition Zposition Zrotation Yrotation Xrotation
										End Site
										{
											OFFSET 0.000000 0.000000 0.100006
										}
									}
								}
								JOINT LeftArmEnd
								{
									OFFSET 0.000000 0.000000 0.000000
									CHANNELS 6 Xposition Yposition Zposition Zrotation Yrotation Xrotation
									End Site
									{
										OFFSET 0.000000 0.000000 0.100006
									}
								}
							}
						}
					}
				}
			}
		}
	}
	JOINT RightUpLeg
	{
		OFFSET -11.289948 0.000000 0.000000
		CHANNELS 6 Xposition Yposition Zposition Zrotation Yrotation Xrotation
		JOINT RightLeg
		{
			OFFSET 0.000000 0.000000 -38.200321
			CHANNELS 6 Xposition Yposition Zposition Zrotation Yrotation Xrotation
			JOINT RightFoot
			{
				OFFSET 0.000000 0.000000 -39.900856
				CHANNELS 6 Xposition Yposition Zposition Zrotation Yrotation Xrotation
				JOINT RightToeBase
				{
					OFFSET 0.000000 -15.261658 0.000001
					CHANNELS 6 Xposition Yposition Zposition Zrotation Yrotation Xrotation
					JOINT RightToeBaseEnd
					{
						OFFSET 0.000000 -7.370728 0.000001
						CHANNELS 6 Xposition Yposition Zposition Zrotation Yrotation Xrotation
						End Site
						{
							OFFSET 0.000000 0.000000 0.100000
						}
					}
				}
				JOINT RightLegEnd
				{
					OFFSET 0.000000 0.000000 0.000000
					CHANNELS 6 Xposition Yposition Zposition Zrotation Yrotation Xrotation
					End Site
					{
						OFFSET 0.000000 0.000000 0.100000
					}
				}
			}
			JOINT RightUpLegEnd
			{
				OFFSET 0.000000 0.000000 0.000000
				CHANNELS 6 Xposition Yposition Zposition Zrotation Yrotation Xrotation
				End Site
				{
					OFFSET 0.000000 0.000000 0.099998
				}
			}
		}
	}
	JOINT LeftUpLeg
	{
		OFFSET 11.315674 0.000000 0.000000
		CHANNELS 6 Xposition Yposition Zposition Zrotation Yrotation Xrotation
		JOINT LeftLeg
		{
			OFFSET 0.000000 0.000000 -38.200321
			CHANNELS 6 Xposition Yposition Zposition Zrotation Yrotation Xrotation
			JOINT LeftFoot
			{
				OFFSET 0.000000 0.000000 -39.900856
				CHANNELS 6 Xposition Yposition Zposition Zrotation Yrotation Xrotation
				JOINT LeftToeBase
				{
					OFFSET 0.000000 -15.261658 0.000001
					CHANNELS 6 Xposition Yposition Zposition Zrotation Yrotation Xrotation
					JOINT LeftToeBaseEnd
					{
						OFFSET 0.000000 -7.539978 0.000001
						CHANNELS 6 Xposition Yposition Zposition Zrotation Yrotation Xrotation
						End Site
						{
							OFFSET 0.000000 0.000000 0.100000
						}
					}
				}
				JOINT LeftLegEnd
				{
					OFFSET 0.000000 0.000000 0.000000
					CHANNELS 6 Xposition Yposition Zposition Zrotation Yrotation Xrotation
					End Site
					{
						OFFSET 0.000000 0.000000 0.100000
					}
				}
			}
			JOINT LeftUpLegEnd
			{
				OFFSET 0.000000 0.000000 0.000000
				CHANNELS 6 Xposition Yposition Zposition Zrotation Yrotation Xrotation
				End Site
				{
					OFFSET 0.000000 0.000000 0.099998
				}
			}
		}
	}
}
MOTION
Frames: 2
Frame Time: 0.016667
7.567505 -20.283447 86.611069 11.187154 -1.536884 -18.527551 -0.000040 2.080046 8.814240 -0.928056 -2.265998 11.409717 -0.000019 -0.000085 8.844132 0.246763 0.968104 4.672837 -0.000043 0.000024 11.682275 -2.010286 1.975162 7.524383 -0.000003 0.000013 11.746717 -0.904592 3.624888 5.307832 0.000008 -0.000065 17.658285 -5.074536 -3.778724 8.331582 0.000007 0.000003 5.101521 -2.766134 -0.783039 -1.992880 -0.000061 -0.000068 5.101561 -0.228831 -3.245005 -21.637935 -0.000032 -0.000062 11.655109 0.000000 0.000000 -0.000000 -2.625408 0.000026 11.175200 9.152668 -82.538198 -0.012331 -0.000008 -0.000035 10.434715 20.953048 -36.580489 -17.171430 0.000023 0.000031 29.628401 42.533951 -0.262611 19.351543 0.000008 0.000116 22.857605 -26.702553 8.539258 -13.236866 -2.867264 -2.944290 3.959518 32.221646 -14.231991 56.351847 -0.000010 -0.000050 3.350403 -6.069765 4.962126 -11.486220 0.000012 -0.000061 3.756542 -4.108072 3.575418 -7.915768 -0.000013 -0.000008 3.147339 0.000001 -0.000001 0.000001 -0.086784 -2.345242 10.030914 -6.219411 14.912572 9.040759 -0.000035 -0.000007 4.061075 0.583284 -0.000000 -0.000041 -0.000015 0.000027 3.248877 0.079822 -0.000001 0.000005 -0.000034 0.000005 2.639722 -0.000000 -0.000000 -0.000000 0.104092 -0.006783 9.502953 -1.070295 14.355881 4.946157 0.000004 -0.000016 4.568712 0.546572 -0.000023 -0.000017 0.000009 0.000024 3.654992 0.025642 -0.000001 0.004099 -0.000015 -0.000003 2.741237 0.000000 -0.000000 0.000000 0.086731 2.267462 8.921716 7.085062 13.639662 1.091523 0.000009 -0.000010 4.061101 -1.046696 0.000006 0.000018 -0.000008 0.000015 3.654990 -0.042823 0.000001 0.000043 0.000003 0.000003 2.741226 -0.000000 0.000000 -0.000000 -0.173515 4.467192 7.976997 15.558293 13.789939 -3.686255 -0.000046 -0.000011 3.350398 -2.079798 -0.000421 -0.000100 -0.000045 -0.000005 2.842764 -0.076254 0.000097 -0.004044 0.000019 -0.000009 2.639714 0.000001 0.000000 -0.000000 -0.000007 -0.000052 -0.000004 -0.000001 0.000003 0.000001 0.000008 -0.000008 -0.000006 0.000001 0.000001 -0.000000 2.625404 0.000028 11.175251 -7.525658 79.606709 -0.336805 -0.000023 0.000010 10.813622 -14.866093 19.058309 -10.546940 0.000011 0.000000 28.724747 -19.962022 0.540000 48.327649 0.644325 0.328829 25.716156 31.117532 -22.077029 -22.282094 2.867271 -2.944260 3.959579 -33.134241 11.752069 60.763098 -0.000035 0.000019 3.350415 0.889526 -0.862346 -1.776438 0.000001 0.000006 3.756504 0.614857 -0.601724 -1.231856 0.000010 0.000001 3.099994 -0.000000 -0.000000 -0.000000 0.086747 -2.345253 10.030914 -15.555199 -29.436380 28.480174 0.000015 0.000005 4.061075 0.564275 0.000630 0.000303 -0.000074 -0.000016 3.248883 0.064271 -0.000141 0.000010 -0.000012 -0.000007 2.639721 0.000000 0.000001 -0.000000 -0.104144 -0.006771 9.502945 -10.714281 -32.558173 18.664038 -0.000001 -0.000005 4.568707 0.666873 0.000483 0.134253 -0.000041 -0.000008 3.655000 0.098571 -0.000129 0.113760 0.000000 0.000005 2.741251 -0.000000 0.000002 -0.000001 -0.086827 2.267465 8.921707 -1.391201 -34.355008 4.898256 -0.000013 0.000007 4.061070 -1.155458 -0.000024 0.000243 -0.000022 -0.000013 3.655018 -0.154097 0.000221 0.000017 0.000008 -0.000003 2.741246 0.000001 -0.000002 0.000001 0.173447 4.467141 7.977028 8.901871 -30.878431 -8.560139 -0.000015 -0.000002 3.350384 -2.150551 0.000089 0.000144 -0.000020 0.000009 2.842755 -0.140575 -0.000002 0.007637 0.000030 -0.000001 2.639744 0.000000 0.000003 -0.000000 -0.000033 -0.000065 0.000010 0.000001 -0.000001 0.000001 0.000007 -0.000011 -0.000006 0.000003 0.000001 0.000001 -11.289977 0.000017 0.000008 -14.667947 13.730947 12.169166 -0.000003 0.000028 -38.200348 -1.075382 0.461232 23.210933 -0.000015 -0.000004 -39.900848 -21.426809 -10.028157 11.885282 0.000009 -15.261659 0.000008 1.880175 2.026928 -15.477029 -0.000001 -7.370736 0.000001 0.000001 0.000000 0.000001 0.000005 0.000007 0.000003 -0.000001 -0.000000 0.000002 -0.000006 0.000003 0.000001 -0.000000 0.000001 0.000001 11.315666 -0.000031 -0.000008 -12.668265 -4.730723 13.400377 -0.000030 0.000024 -38.200302 1.523961 -0.523559 18.955998 -0.000041 -0.000019 -39.900848 -1.111908 5.205567 13.460774 -0.000049 -15.261712 0.000015 -1.987818 -0.394040 -20.233203 0.000002 -7.540038 -0.000001 -0.000000 0.000000 0.000001 0.000002 0.000004 -0.000001 -0.000001 -0.000001 -0.000000 -0.000000 -0.000001 -0.000000 0.000000 -0.000001 -0.000002 
7.334961 -20.301453 86.632088 11.142604 -1.225646 -18.491511 -0.000044 2.080025 8.814236 -0.968009 -2.408229 11.401628 -0.000049 -0.000045 8.844151 0.233916 0.927453 4.673519 -0.000043 0.000063 11.682264 -2.026277 1.871593 7.501852 -0.000027 0.000019 11.746704 -0.888882 3.494406 5.331977 -0.000022 -0.000072 17.658270 -5.115126 -3.945489 8.321569 0.000010 -0.000029 5.101529 -2.773032 -0.775030 -2.006881 -0.000051 -0.000048 5.101578 -0.230624 -3.218389 -21.592074 0.000000 -0.000061 11.655103 0.000000 -0.000000 0.000000 -2.625385 0.000015 11.175175 9.123127 -82.462991 -0.011432 -0.000015 -0.000020 10.434715 20.864409 -36.435152 -17.101508 0.000011 0.000004 29.628435 42.494579 -0.328775 19.521924 0.000050 0.000072 22.857574 -26.827057 8.350033 -13.358639 -2.867340 -2.944321 3.959473 32.221715 -14.231946 56.351813 -0.000017 -0.000046 3.350422 -6.069772 4.962130 -11.486226 -0.000044 -0.000067 3.756529 -4.108080 3.575339 -7.915721 0.000009 -0.000003 3.147336 0.000000 0.000001 -0.000001 -0.086746 -2.345272 10.030914 -6.227507 14.860127 8.991754 0.000023 -0.000023 4.061106 0.583059 -0.044243 -0.000489 0.000014 -0.000013 3.248873 0.079620 0.024661 0.000039 -0.000010 -0.000003 2.639725 -0.000000 -0.000000 -0.000000 0.104094 -0.006806 9.502945 -1.075488 14.319745 4.914613 -0.000021 -0.000004 4.568707 0.546448 0.000005 -0.000018 0.000013 0.000010 3.654991 0.025497 0.000001 0.004139 0.000001 -0.000005 2.741227 0.000001 -0.000000 -0.000000 0.086727 2.267481 8.921730 7.085388 13.677040 1.090170 -0.000039 0.000004 4.061092 -1.046499 0.000014 0.000018 -0.000008 0.000017 3.654978 -0.042624 0.002799 0.000040 -0.000041 -0.000006 2.741241 0.000001 -0.000000 0.000000 -0.173550 4.467159 7.977001 15.587453 13.897417 -3.624621 -0.000052 0.000016 3.350423 -2.078997 -0.000251 -0.000104 -0.000026 0.000023 2.842768 -0.075780 0.000054 -0.004005 -0.000001 -0.000007 2.639707 0.000001 -0.000000 0.000000 -0.000042 -0.000061 0.000010 0.000000 -0.000003 0.000000 0.000004 -0.000007 0.000000 0.000001 0.000004 -0.000002 2.625412 0.000026 11.175239 -7.531721 79.465091 -0.334909 -0.000034 -0.000008 10.813637 -14.828359 19.137562 -10.574548 -0.000057 0.000000 28.724775 -19.999417 0.560200 48.210224 0.644356 0.328815 25.716156 31.215324 -22.000471 -22.378932 2.867287 -2.944229 3.959572 -33.134323 11.752020 60.763289 0.000027 0.000027 3.350408 0.889535 -0.862330 -1.776815 -0.000027 -0.000014 3.756513 0.614850 -0.601640 -1.231694 -0.000011 -0.000002 3.100004 0.000000 -0.000000 0.000000 0.086769 -2.345261 10.030914 -15.520350 -29.344193 28.463400 -0.000008 0.000023 4.061096 0.563048 -0.027394 0.000032 -0.000043 -0.000004 3.248863 0.063164 0.015261 0.000025 0.000022 -0.000006 2.639717 0.000001 -0.000001 0.000000 -0.104086 -0.006748 9.502930 -10.689389 -32.474561 18.609837 -0.000038 0.000018 4.568704 0.667362 0.000009 0.133896 -0.000045 -0.000025 3.654997 0.098678 0.000003 0.113498 -0.000008 0.000001 2.741217 0.000000 -0.000003 -0.000001 -0.086750 2.267481 8.921684 -1.371508 -34.249475 4.800005 -0.000067 0.000017 4.061061 -1.156067 -0.000091 0.000248 0.000003 -0.000027 3.654961 -0.154990 0.001349 0.000015 0.000004 -0.000010 2.741246 0.000002 -0.000001 0.000001 0.173504 4.467188 7.977013 8.889690 -30.744208 -8.681091 0.000014 0.000007 3.350390 -2.150881 0.000073 0.000147 -0.000019 0.000028 2.842770 -0.140729 -0.000001 0.007760 -0.000013 -0.000002 2.639704 0.000000 -0.000000 0.000000 0.000024 -0.000059 0.000002 0.000000 0.000001 0.000000 0.000004 -0.000019 -0.000003 0.000001 0.000001 0.000003 -11.289971 0.000023 0.000008 -14.765105 13.233668 12.491232 0.000012 0.000046 -38.200344 -1.070853 0.448359 22.711499 0.000008 0.000021 -39.900867 -21.474183 -9.762289 11.995699 0.000017 -15.261678 0.000013 1.876821 1.997367 -15.482171 -0.000013 -7.370723 0.000001 -0.000001 -0.000001 0.000000 0.000018 0.000011 0.000001 -0.000002 0.000000 0.000001 0.000003 -0.000010 -0.000001 0.000002 -0.000000 -0.000001 11.315683 -0.000088 0.000000 -12.768605 -5.225458 13.418115 -0.000007 -0.000032 -38.200314 1.544648 -0.532548 19.018062 -0.000005 -0.000015 -39.900856 -1.167968 5.364054 13.447226 0.000008 -15.261734 0.000028 -1.988952 -0.431430 -20.231763 -0.000001 -7.539977 0.000000 -0.000000 -0.000000 0.000001 0.000004 -0.000058 -0.000001 -0.000000 -0.000000 0.000000 0.000035 0.000001 0.000000 -0.000000 -0.000001 -0.000000 
